<svg xmlns="http://www.w3.org/2000/svg" width="630" height="423" viewBox="0 0 630 423" fill="none">
  <path d="M514.775 121.123L628.6 121.356L572.154 180.707V301.877L458.096 301.83L451.052 291.721C443.028 280.214 439.949 275.369 429.873 258.319C416.904 236.33 410.42 226.268 403.749 217.556C399.97 212.665 390.267 202.788 386.862 200.319C385.602 199.481 384.622 198.642 384.622 198.456C384.622 198.316 386.255 197.384 388.261 196.406C404.075 188.626 413.965 175.349 417.557 157.181C418.723 151.451 418.723 137.987 417.604 131.838C413.032 107.194 395.119 90.3766 367.782 85.2056C362.744 84.2273 360.878 84.1807 330.415 83.9944L298.32 83.808V301.877H328.643V207.307H336.06C343.524 207.307 349.402 208.006 353.32 209.404C360.504 211.919 372.727 223.892 383.549 238.986C386.395 242.945 391.48 251.424 400.483 267.17C403.096 271.782 407.854 279.422 410.979 284.174C414.105 288.926 417.884 294.842 419.423 297.311L422.175 301.877H457.396V423H572.621V302.11L630 241.734V0H514.775V121.123ZM358.778 111.993C372.167 114.322 379.957 119.679 384.436 129.742C386.675 134.913 387.561 139.804 387.281 146.047C386.955 152.615 386.208 155.83 383.549 161.187C382.057 164.262 380.797 165.986 377.858 168.92C369.974 176.84 361.904 178.89 338.859 178.89H328.176V110.735L341.378 111.014C350.148 111.154 355.933 111.48 358.778 111.993Z" fill="#ECF3FB"/>
  <path d="M100.064 81.3813C72.8202 84.0367 51.0348 94.1924 32.1883 112.966C15.3478 129.831 5.22477 149.443 1.11959 173.342C0.139949 178.886 0.0466497 181.122 0 193.094C0 208.095 0.373198 211.682 3.26548 222.909C7.37066 238.842 15.0679 254.262 25.2375 266.747C36.9466 281.142 54.067 293.161 70.6743 298.611C87.9347 304.248 107.808 305.879 130.153 303.456C148.439 301.453 164.767 296.701 180.441 288.735L185.899 285.94V268.517C185.899 258.92 185.759 251.094 185.619 251.094C185.479 251.094 183.613 252.212 181.561 253.563C153.571 271.778 120.916 279.092 93.1129 273.408C65.9627 267.911 43.5242 248.066 34.9873 222.024C29.2494 204.461 29.2494 182.845 35.034 165.376C37.1798 158.9 41.5183 150.328 45.3902 144.878C49.4021 139.194 58.9186 129.691 64.6099 125.684C72.5403 120.048 82.8966 115.482 92.5997 113.246C101.696 111.15 115.038 110.544 125.021 111.755C142.935 113.991 162.528 120.793 179.695 130.809C181.514 131.88 183.147 132.766 183.287 132.766C183.473 132.766 183.52 125.079 183.473 115.715L183.333 98.6646L176.103 95.6365C158.562 88.3226 141.302 83.6174 125.021 81.7539C119.61 81.1483 104.822 80.9154 100.064 81.3813Z" fill="#ECF3FB"/>
  <path d="M222.136 198.314C222.042 282.634 221.809 313.847 221.436 316.782C219.943 327.59 217.844 332.807 213.132 337.606C207.954 342.87 202.263 344.64 188.781 345.059L180.664 345.339L180.897 346.55C181.037 347.202 182.25 353.771 183.603 361.132C185.795 373.058 186.169 374.502 187.055 374.781C189.247 375.433 199.93 375.573 204.222 375.061C216.444 373.523 225.728 369.284 234.125 361.458C245.274 351.069 250.032 338.444 251.665 314.918C251.945 310.726 252.131 265.91 252.131 195.984V83.8522H222.322L222.136 198.314Z" fill="#ECF3FB"/>
</svg>
