<svg width="50" height="47" viewBox="0 0 50 47" fill="none" xmlns="http://www.w3.org/2000/svg">
<g id="material-symbols:add-a-photo">
<path id="Vector" d="M6.24992 43.0837C5.10409 43.0837 4.12353 42.7005 3.30825 41.9341C2.49159 41.1665 2.08325 40.2441 2.08325 39.167V15.667C2.08325 14.5899 2.49159 13.6682 3.30825 12.9018C4.12353 12.1342 5.10409 11.7503 6.24992 11.7503H12.8124L16.6666 7.83366H29.1666V15.667H35.4166V21.542H43.7499V39.167C43.7499 40.2441 43.3423 41.1665 42.527 41.9341C41.7103 42.7005 40.7291 43.0837 39.5833 43.0837H6.24992ZM22.9166 36.2295C25.5208 36.2295 27.7346 35.373 29.5583 33.6602C31.3805 31.946 32.2916 29.8649 32.2916 27.417C32.2916 24.9691 31.3805 22.888 29.5583 21.1738C27.7346 19.4609 25.5208 18.6045 22.9166 18.6045C20.3124 18.6045 18.0985 19.4609 16.2749 21.1738C14.4527 22.888 13.5416 24.9691 13.5416 27.417C13.5416 29.8649 14.4527 31.946 16.2749 33.6602C18.0985 35.373 20.3124 36.2295 22.9166 36.2295ZM22.9166 32.3128C21.4583 32.3128 20.2256 31.8396 19.2187 30.893C18.2117 29.9465 17.7083 28.7878 17.7083 27.417C17.7083 26.0462 18.2117 24.8875 19.2187 23.941C20.2256 22.9944 21.4583 22.5212 22.9166 22.5212C24.3749 22.5212 25.6076 22.9944 26.6145 23.941C27.6214 24.8875 28.1249 26.0462 28.1249 27.417C28.1249 28.7878 27.6214 29.9465 26.6145 30.893C25.6076 31.8396 24.3749 32.3128 22.9166 32.3128ZM39.5833 15.667V11.7503H35.4166V7.83366H39.5833V3.91699H43.7499V7.83366H47.9166V11.7503H43.7499V15.667H39.5833Z" fill="#001830"/>
</g>
</svg>

